# xmcd
#
# Track frame offsets: 
#        150
#        19119
#        32236
#        49686
#        62657
#        77558
#        99662
#        118610
#        141745
#        163835
#        182031
#        201125
#        216639
#        248084
#        265472
#        283473
#
# Disc length: 4191 seconds
#
# Revision: 0
# Processed by: cddbd v1.4PL0 Copyright (c) Steve Scherf et al.
# Submitted via: ExactAudioCopy v0.95a3
#
DISCID=fd105d10
DTITLE=Eric Clapton - 1994-11-28 Club full of Blues disc 1
DYEAR=1994
DGENRE=Blues
TTITLE0=Motherless Child
TTITLE1=Malted Milk
TTITLE2=How Long
TTITLE3=Kidman Blues
TTITLE4=County Jail
TTITLE5=44
TTITLE6=Blues leave me Alone
TTITLE7=Standing around crying
TTITLE8=Going Away
TTITLE9=Hoochie Coochie Man
TTITLE10=It hurts me too
TTITLE11=Blues before Sunrise
TTITLE12=Third Degree
TTITLE13=Reconsider Baby
TTITLE14=Sinner's Prayer
TTITLE15=Before you accuse me
EXTD=
EXTT0=
EXTT1=
EXTT2=
EXTT3=
EXTT4=
EXTT5=
EXTT6=
EXTT7=
EXTT8=
EXTT9=
EXTT10=
EXTT11=
EXTT12=
EXTT13=
EXTT14=
EXTT15=
PLAYORDER=
